<svg width="87" height="80" viewBox="0 0 87 80" fill="none" xmlns="http://www.w3.org/2000/svg">
<path d="M72.7111 57.3711C62.6599 61.5773 54.3417 59.4742 38.3985 59.4742C20.4052 59.4742 45.2003 60.1753 53.6485 41.9485C58.8474 30.732 70.2849 37.0412 85.8816 9C89.0009 37.0412 85.9001 51.8518 72.7111 57.3711Z" fill="#3B5DA4"/>
<path d="M57.5626 31.046C54.7968 38.4321 49.5915 41.8382 41.7198 50.3203C32.8359 59.8931 45.4442 47.0414 40.0963 33.7128C36.8052 25.5106 45.7474 22.4835 38.8032 0.595022C54.988 12.5262 61.192 21.3542 57.5626 31.046Z" fill="#FB9E43"/>
<path d="M44.4344 74.0466C40.2478 71.4344 38.8044 67.8197 34.5788 61.9403C29.8098 55.3049 36.1278 64.631 44.9651 63.0042C50.4034 62.0031 51.1509 67.8625 65.4357 66.3184C56.1114 74.7644 49.9281 77.4744 44.4344 74.0466Z" fill="#FB9E43"/>
<path d="M36.1728 33.6518C37.7874 38.3149 36.6382 42.0336 36.2298 49.2625C35.7687 57.4209 36.7161 46.1961 28.8199 41.9071C23.9607 39.2678 27.062 34.2405 14.9806 26.4635C27.5415 25.7544 34.0541 27.5329 36.1728 33.6518Z" fill="#3B5DA4"/>
<path d="M34.425 72.6648L27.816 66.0753C29.9484 63.3587 31.1054 60.004 31.1011 56.5506C31.1011 53.4749 30.1891 50.4684 28.4804 47.9111C26.7716 45.3539 24.343 43.3607 21.5015 42.1837C18.66 41.0067 15.5333 40.6988 12.5168 41.2988C9.50028 41.8988 6.72944 43.3799 4.55466 45.5547C2.37987 47.7294 0.898827 50.5003 0.298806 53.5168C-0.301215 56.5333 0.00673776 59.66 1.18372 62.5015C2.36071 65.343 4.35386 67.7716 6.91113 69.4804C9.4684 71.1891 12.4749 72.1011 15.5506 72.1011C19.004 72.1054 22.3587 70.9484 25.0753 68.816L31.6648 75.425C31.8455 75.6072 32.0605 75.7518 32.2974 75.8505C32.5342 75.9492 32.7883 76 33.0449 76C33.3015 76 33.5556 75.9492 33.7925 75.8505C34.0293 75.7518 34.2443 75.6072 34.425 75.425C34.6072 75.2443 34.7518 75.0293 34.8505 74.7925C34.9492 74.5556 35 74.3015 35 74.0449C35 73.7883 34.9492 73.5342 34.8505 73.2974C34.7518 73.0605 34.6072 72.8455 34.425 72.6648ZM3.88764 56.5506C3.88764 54.2438 4.57166 51.9889 5.8532 50.071C7.13473 48.153 8.95623 46.6582 11.0873 45.7754C13.2185 44.8927 15.5635 44.6617 17.8259 45.1117C20.0883 45.5618 22.1664 46.6725 23.7975 48.3036C25.4286 49.9347 26.5393 52.0128 26.9894 54.2752C27.4394 56.5376 27.2084 58.8826 26.3257 61.0138C25.4429 63.1449 23.9481 64.9664 22.0301 66.2479C20.1122 67.5294 17.8573 68.2135 15.5506 68.2135C12.4574 68.2135 9.49085 66.9847 7.30363 64.7975C5.11641 62.6103 3.88764 59.6437 3.88764 56.5506Z" fill="#FB9E43"/>
</svg>
