<svg width="341" height="80" viewBox="0 0 341 80" fill="none" xmlns="http://www.w3.org/2000/svg">
<path d="M117.25 52.5H113.545L108.955 45.6818V45.4545H112.886L117.25 52.5ZM117.25 38.5455L112.886 45.5909H108.955V45.3636L113.545 38.5455H117.25ZM124.182 52.5H120.477L115.886 45.6818V45.4545H119.818L124.182 52.5ZM124.182 38.5455L119.818 45.5909H115.886V45.3636L120.477 38.5455H124.182ZM128.42 31.7273H133.58L140.489 48.5909H140.761L147.67 31.7273H152.83V55H148.784V39.0114H148.568L142.136 54.9318H139.114L132.682 38.9773H132.466V55H128.42V31.7273ZM164.852 55.3409C163.148 55.3409 161.67 54.9659 160.42 54.2159C159.17 53.4659 158.201 52.4167 157.511 51.0682C156.83 49.7197 156.489 48.1439 156.489 46.3409C156.489 44.5379 156.83 42.9583 157.511 41.6023C158.201 40.2462 159.17 39.1932 160.42 38.4432C161.67 37.6932 163.148 37.3182 164.852 37.3182C166.557 37.3182 168.034 37.6932 169.284 38.4432C170.534 39.1932 171.5 40.2462 172.182 41.6023C172.871 42.9583 173.216 44.5379 173.216 46.3409C173.216 48.1439 172.871 49.7197 172.182 51.0682C171.5 52.4167 170.534 53.4659 169.284 54.2159C168.034 54.9659 166.557 55.3409 164.852 55.3409ZM164.875 52.0455C165.799 52.0455 166.572 51.7917 167.193 51.2841C167.814 50.7689 168.277 50.0795 168.58 49.2159C168.89 48.3523 169.045 47.3902 169.045 46.3295C169.045 45.2614 168.89 44.2955 168.58 43.4318C168.277 42.5606 167.814 41.8674 167.193 41.3523C166.572 40.8371 165.799 40.5795 164.875 40.5795C163.928 40.5795 163.14 40.8371 162.511 41.3523C161.89 41.8674 161.424 42.5606 161.114 43.4318C160.811 44.2955 160.659 45.2614 160.659 46.3295C160.659 47.3902 160.811 48.3523 161.114 49.2159C161.424 50.0795 161.89 50.7689 162.511 51.2841C163.14 51.7917 163.928 52.0455 164.875 52.0455ZM188.696 44.5682V47.9432H179.401V44.5682H188.696ZM180.673 37.5455V55H176.707V37.5455H180.673ZM191.389 37.5455V55H187.435V37.5455H191.389ZM199.517 49.4318L206.506 37.5455H210.733V55H206.756V43.1023L199.79 55H195.551V37.5455H199.517V49.4318ZM213.003 40.9205V37.5455H228.276V40.9205H222.628V55H218.651V40.9205H213.003ZM238.446 55.3409C236.741 55.3409 235.264 54.9659 234.014 54.2159C232.764 53.4659 231.795 52.4167 231.105 51.0682C230.423 49.7197 230.082 48.1439 230.082 46.3409C230.082 44.5379 230.423 42.9583 231.105 41.6023C231.795 40.2462 232.764 39.1932 234.014 38.4432C235.264 37.6932 236.741 37.3182 238.446 37.3182C240.151 37.3182 241.628 37.6932 242.878 38.4432C244.128 39.1932 245.094 40.2462 245.776 41.6023C246.465 42.9583 246.81 44.5379 246.81 46.3409C246.81 48.1439 246.465 49.7197 245.776 51.0682C245.094 52.4167 244.128 53.4659 242.878 54.2159C241.628 54.9659 240.151 55.3409 238.446 55.3409ZM238.469 52.0455C239.393 52.0455 240.166 51.7917 240.787 51.2841C241.408 50.7689 241.87 50.0795 242.173 49.2159C242.484 48.3523 242.639 47.3902 242.639 46.3295C242.639 45.2614 242.484 44.2955 242.173 43.4318C241.87 42.5606 241.408 41.8674 240.787 41.3523C240.166 40.8371 239.393 40.5795 238.469 40.5795C237.522 40.5795 236.734 40.8371 236.105 41.3523C235.484 41.8674 235.018 42.5606 234.707 43.4318C234.404 44.2955 234.253 45.2614 234.253 46.3295C234.253 47.3902 234.404 48.3523 234.707 49.2159C235.018 50.0795 235.484 50.7689 236.105 51.2841C236.734 51.7917 237.522 52.0455 238.469 52.0455ZM250.301 61.5455V37.5455H254.347V40.4318H254.585C254.797 40.0076 255.097 39.5568 255.483 39.0795C255.869 38.5947 256.392 38.1818 257.051 37.8409C257.71 37.4924 258.551 37.3182 259.574 37.3182C260.922 37.3182 262.138 37.6629 263.222 38.3523C264.313 39.0341 265.176 40.0455 265.812 41.3864C266.456 42.7197 266.778 44.3561 266.778 46.2955C266.778 48.2121 266.464 49.8409 265.835 51.1818C265.206 52.5227 264.35 53.5455 263.267 54.25C262.184 54.9545 260.956 55.3068 259.585 55.3068C258.585 55.3068 257.756 55.1402 257.097 54.8068C256.438 54.4735 255.907 54.072 255.506 53.6023C255.112 53.125 254.805 52.6742 254.585 52.25H254.415V61.5455H250.301ZM254.335 46.2727C254.335 47.4015 254.494 48.3902 254.812 49.2386C255.138 50.0871 255.604 50.75 256.21 51.2273C256.824 51.697 257.566 51.9318 258.438 51.9318C259.347 51.9318 260.108 51.6894 260.722 51.2045C261.335 50.7121 261.797 50.0417 262.108 49.1932C262.426 48.3371 262.585 47.3636 262.585 46.2727C262.585 45.1894 262.43 44.2273 262.119 43.3864C261.809 42.5455 261.347 41.8864 260.733 41.4091C260.119 40.9318 259.354 40.6932 258.438 40.6932C257.559 40.6932 256.812 40.9242 256.199 41.3864C255.585 41.8485 255.119 42.4962 254.801 43.3295C254.491 44.1629 254.335 45.1439 254.335 46.2727ZM274.267 49.4318L281.256 37.5455H285.483V55H281.506V43.1023L274.54 55H270.301V37.5455H274.267V49.4318ZM301.696 44.5682V47.9432H292.401V44.5682H301.696ZM293.673 37.5455V55H289.707V37.5455H293.673ZM304.389 37.5455V55H300.435V37.5455H304.389ZM320.097 37.5455V40.9205H312.574V55H308.551V37.5455H320.097ZM323.077 52.5L327.44 45.4545H331.372V45.6818L326.781 52.5H323.077ZM323.077 38.5455H326.781L331.372 45.3636V45.5909H327.44L323.077 38.5455ZM330.077 52.5L334.44 45.4545H338.372V45.6818L333.781 52.5H330.077ZM330.077 38.5455H333.781L338.372 45.3636V45.5909H334.44L330.077 38.5455Z" fill="#3B5DA4"/>
<path d="M72.7111 57.3711C62.6599 61.5773 54.3417 59.4742 38.3985 59.4742C20.4052 59.4742 45.2003 60.1753 53.6485 41.9485C58.8474 30.732 70.2849 37.0412 85.8816 9C89.0009 37.0412 85.9001 51.8518 72.7111 57.3711Z" fill="#3B5DA4"/>
<path d="M57.5626 31.046C54.7968 38.4321 49.5915 41.8382 41.7198 50.3203C32.8359 59.8931 45.4442 47.0414 40.0963 33.7128C36.8052 25.5106 45.7474 22.4835 38.8032 0.595022C54.988 12.5262 61.192 21.3542 57.5626 31.046Z" fill="#FB9E43"/>
<path d="M44.4344 74.0466C40.2478 71.4344 38.8044 67.8197 34.5788 61.9403C29.8098 55.3049 36.1278 64.631 44.9651 63.0042C50.4034 62.0031 51.1509 67.8625 65.4357 66.3184C56.1114 74.7644 49.9281 77.4743 44.4344 74.0466Z" fill="#FB9E43"/>
<path d="M36.1728 33.6518C37.7874 38.3149 36.6382 42.0336 36.2298 49.2625C35.7687 57.4209 36.7161 46.1961 28.8199 41.9071C23.9607 39.2678 27.062 34.2405 14.9806 26.4635C27.5415 25.7544 34.0541 27.5329 36.1728 33.6518Z" fill="#3B5DA4"/>
<path d="M34.425 72.6648L27.816 66.0753C29.9484 63.3587 31.1054 60.004 31.1011 56.5506C31.1011 53.4749 30.1891 50.4684 28.4804 47.9111C26.7716 45.3539 24.343 43.3607 21.5015 42.1837C18.66 41.0067 15.5333 40.6988 12.5168 41.2988C9.50028 41.8988 6.72944 43.3799 4.55466 45.5547C2.37987 47.7294 0.898827 50.5003 0.298806 53.5168C-0.301215 56.5333 0.00673776 59.66 1.18372 62.5015C2.36071 65.343 4.35386 67.7716 6.91113 69.4804C9.4684 71.1891 12.4749 72.1011 15.5506 72.1011C19.004 72.1054 22.3587 70.9484 25.0753 68.816L31.6648 75.425C31.8455 75.6072 32.0605 75.7518 32.2974 75.8505C32.5342 75.9492 32.7883 76 33.0449 76C33.3015 76 33.5556 75.9492 33.7925 75.8505C34.0293 75.7518 34.2443 75.6072 34.425 75.425C34.6072 75.2443 34.7518 75.0293 34.8505 74.7925C34.9492 74.5556 35 74.3015 35 74.0449C35 73.7883 34.9492 73.5342 34.8505 73.2974C34.7518 73.0605 34.6072 72.8455 34.425 72.6648V72.6648ZM3.88764 56.5506C3.88764 54.2438 4.57166 51.9889 5.8532 50.071C7.13473 48.153 8.95623 46.6582 11.0873 45.7754C13.2185 44.8927 15.5635 44.6617 17.8259 45.1117C20.0883 45.5618 22.1664 46.6725 23.7975 48.3036C25.4286 49.9347 26.5393 52.0128 26.9894 54.2752C27.4394 56.5376 27.2084 58.8826 26.3257 61.0138C25.4429 63.1449 23.9481 64.9664 22.0301 66.2479C20.1122 67.5294 17.8573 68.2135 15.5506 68.2135C12.4574 68.2135 9.49085 66.9847 7.30363 64.7975C5.11641 62.6103 3.88764 59.6437 3.88764 56.5506Z" fill="#FB9E43"/>
</svg>
